<?xml version="1.0" encoding="iso-8859-1"?>
<!-- Uploaded to: SVG Repo, www.svgrepo.com, Generator: SVG Repo Mixer Tools -->
<svg fill="#000000" height="800px" width="800px" version="1.1" id="Layer_1" xmlns="http://www.w3.org/2000/svg" xmlns:xlink="http://www.w3.org/1999/xlink" 
	 viewBox="0 0 512 512" xml:space="preserve">
<g>
	<g>
		<path d="M426.731,0H85.269C38.251,0,0,38.251,0,85.269v341.461C0,473.749,38.251,512,85.269,512h341.461
			C473.749,512,512,473.749,512,426.731V85.269C512,38.251,473.749,0,426.731,0z M164.501,305.003
			c8.277,8.384,8.192,21.888-0.171,30.165c-4.181,4.117-9.579,6.165-14.997,6.165c-5.504,0-11.008-2.112-15.168-6.336L71.68,271.787
			c-2.283-2.069-4.139-4.629-5.376-7.573c-3.307-7.957-1.579-17.109,4.48-23.232l63.403-64c8.256-8.363,21.76-8.448,30.165-0.149
			c8.341,8.299,8.427,21.803,0.149,30.187l-48.491,48.917L164.501,305.003z M256,384c-11.797,0-21.333-9.557-21.333-21.333
			s9.536-21.333,21.333-21.333c11.776,0,21.333,9.557,21.333,21.333S267.776,384,256,384z M296.064,246.4
			c-11.904,10.133-18.731,25.429-18.731,41.963v4.224c0,11.776-9.557,21.333-21.333,21.333c-11.797,0-21.333-9.557-21.333-21.333
			v-4.224c0-29.056,12.288-56.171,33.728-74.432c4.267-3.648,6.72-8.96,6.72-14.571c0-10.005-9.131-19.136-19.115-19.136
			c-10.56,0-19.136,8.597-19.136,19.136c0,11.776-9.536,21.333-21.333,21.333c-11.797,0-21.333-9.557-21.333-21.333
			c0-34.091,27.733-61.803,61.803-61.803c33.493,0,61.781,28.309,61.781,61.803C317.781,217.493,309.867,234.645,296.064,246.4z
			 M441.451,271.04l-63.659,64c-4.181,4.203-9.664,6.293-15.125,6.293c-5.44,0-10.88-2.069-15.04-6.208
			c-8.363-8.32-8.405-21.824-0.085-30.165l48.64-48.917L347.52,207.04c-8.299-8.384-8.256-21.888,0.128-30.187
			c8.299-8.299,21.845-8.256,30.165,0.107l62.656,63.168c2.325,2.069,4.224,4.693,5.483,7.68
			C449.259,255.765,447.531,264.939,441.451,271.04z"/>
	</g>
</g>
</svg>