<svg clip-rule="evenodd" fill-rule="evenodd" stroke-linejoin="round" stroke-miterlimit="2" viewBox="0 0 560 400" xmlns="http://www.w3.org/2000/svg"><g fill="#3781c2" transform="matrix(2.93341 0 0 -2.93341 -2398.72 661.141)"><path d="m851.813 176.314-.001.059v4.723h4.713v-34.641l.002-.108v-4.674h-4.715v4.723l.001.059z"/><path d="m899.736 156.03c.121-7.165 4.554-12.895 9.902-12.799 5.347.096 9.583 5.982 9.462 13.147-.122 7.166-4.555 12.896-9.903 12.799-5.347-.096-9.583-5.982-9.461-13.147zm39.023 8.663c.123-.273-.169.408-.169.408zm3.212-29.663c.216.37.517.936.875 1.643zm.277 32.135c.057-.159.123-.325.197-.5l1.587-3.909zm-19.748-19.678c2.913-2.66 5.536-4.035 8.89-4.035 3.433-.026 6.485 1.663 6.485 4.914 0 2.713-2.391 4.3-6.663 6.117-3.62 1.576-6.314 2.681-7.722 4.962.172-.991.262-2.015.262-3.063 0-8.799-6.344-15.933-14.17-15.933s-14.17 7.134-14.17 15.933c0 5.305 2.306 10.004 5.851 12.9h-9.589v-22.827l.001-.091v-4.691h-4.259v4.538c.003.08.004.161.004.244v22.827h-3.755v2.873h3.81c.492 5.796 4.061 9.074 9.002 9.074 3.204 0 4.963-.336 5.979-.809v-3.929c-.016-.293-.016-.472-.016-.472-.044.005-.149.007-.149.007-1.542 1.431-3.063 2.496-6.616 2.492-2.83 0-4.702-2.313-4.048-6.363h15.94c.659.105 1.331.16 2.015.16 5.677 0 10.575-3.754 12.836-9.176-.021.301-.031.615-.031.943 0 5.657 5.443 8.063 11.097 8.051.216.001.428 0 .636-.005 1.99.032 4.825-.621 6.556-1.079l3.356-8.293 4.796-11.768.563-1.89.627 1.89 6.065 15.105c1.119 4.159 5.548 5.959 10.44 5.949 2.432.011 4.228-.284 6.382-1.046v-4.568c-2.652 1.939-4.551 3.066-7.56 3.066-2.645 0-5.824-1.178-5.824-5.094-.051-2.943 1.704-3.481 6.854-6.052 4.233-1.849 8.138-3.89 8.161-8.617 0-7.881-7.718-9.246-11.475-9.258-3.354 0-6.428.833-8.138 2.264v5.203l.275-.229c3.051-2.866 5.747-4.351 9.231-4.351 3.434-.026 6.485 1.664 6.485 4.915 0 2.713-2.391 4.3-6.663 6.117-4.083 1.778-6.762 2.956-7.857 5.901-1.665-4.085-9.41-23.06-11.233-27.116h-4.176l1.89 3.55c1.047 2.074 2.57 5.328 3.923 8.441l-8.039 19.525c-.054.119-.186.419-.455 1.034-.617 1.414-1.191 2.72-2.927 3.378-.93.315-1.92.48-3.071.48-2.645 0-6.028-1.178-6.028-5.094-.051-2.943 1.907-3.481 7.058-6.051 4.233-1.85 8.138-3.891 8.161-8.618 0-7.881-7.719-9.245-11.476-9.258-2.982 0-5.744.659-7.521 1.811z"/><path d="m865.32 171.861.052-3.448-.003-.232.046.001c.055.144.129.266.199.357 1.731 1.867 3.913 3.722 9.099 3.722 4.964 0 8.177-4.243 8.306-6.914l.005-18.892v-4.782h-4.254v5.633l-.001 16.083c0 3.33-2.905 5.738-6.461 5.738-2.956 0-6.75-2.676-6.876-5.385v-17.292l.002-.127v-4.654h-4.256v26.222l.001 3.97z"/></g></svg>